<?xml version="1.0" encoding="UTF-8" standalone="no"?>
<!-- Created with Inkscape (http://www.inkscape.org/) -->

<svg
   width="210mm"
   height="297mm"
   viewBox="0 0 210 297"
   version="1.1"
   id="svg1"
   inkscape:export-filename="fig.pdf"
   inkscape:export-xdpi="96"
   inkscape:export-ydpi="96"
   inkscape:version="1.3.2 (091e20e, 2023-11-25)"
   sodipodi:docname="asymmetry.svg"
   xmlns:inkscape="http://www.inkscape.org/namespaces/inkscape"
   xmlns:sodipodi="http://sodipodi.sourceforge.net/DTD/sodipodi-0.dtd"
   xmlns="http://www.w3.org/2000/svg"
   xmlns:svg="http://www.w3.org/2000/svg">
  <sodipodi:namedview
     id="namedview1"
     pagecolor="#ffffff"
     bordercolor="#000000"
     borderopacity="0.25"
     inkscape:showpageshadow="2"
     inkscape:pageopacity="0.0"
     inkscape:pagecheckerboard="0"
     inkscape:deskcolor="#d1d1d1"
     inkscape:document-units="mm"
     inkscape:zoom="1.5365"
     inkscape:cx="476.082"
     inkscape:cy="471.20078"
     inkscape:window-width="2560"
     inkscape:window-height="1387"
     inkscape:window-x="1792"
     inkscape:window-y="25"
     inkscape:window-maximized="1"
     inkscape:current-layer="svg1"
     showgrid="true"
     showguides="false">
    <inkscape:grid
       id="grid7"
       units="mm"
       originx="396.85039"
       originy="561.25984"
       spacingx="0.99999998"
       spacingy="1"
       empcolor="#0099e5"
       empopacity="0.30196078"
       color="#0099e5"
       opacity="0.14901961"
       empspacing="5"
       dotted="false"
       gridanglex="30"
       gridanglez="30"
       visible="true" />
  </sodipodi:namedview>
  <defs
     id="defs1">
    <inkscape:path-effect
       effect="bspline"
       id="path-effect3"
       is_visible="true"
       lpeversion="1.3"
       weight="33.333333"
       steps="2"
       helper_size="0"
       apply_no_weight="true"
       apply_with_weight="true"
       only_selected="false"
       uniform="false" />
    <inkscape:path-effect
       effect="spiro"
       id="path-effect20"
       is_visible="true"
       lpeversion="1" />
    <inkscape:path-effect
       effect="spiro"
       id="path-effect17"
       is_visible="true"
       lpeversion="1" />
    <inkscape:path-effect
       effect="spiro"
       id="path-effect14"
       is_visible="true"
       lpeversion="1" />
    <inkscape:path-effect
       effect="spiro"
       id="path-effect8"
       is_visible="true"
       lpeversion="1" />
    <inkscape:path-effect
       effect="spiro"
       id="path-effect7"
       is_visible="true"
       lpeversion="1" />
    <inkscape:path-effect
       effect="spiro"
       id="path-effect2"
       is_visible="true"
       lpeversion="1" />
    <inkscape:path-effect
       effect="spiro"
       id="path-effect1"
       is_visible="true"
       lpeversion="1" />
    <inkscape:path-effect
       effect="spiro"
       id="path-effect42"
       is_visible="true"
       lpeversion="1" />
    <inkscape:path-effect
       effect="spiro"
       id="path-effect41"
       is_visible="true"
       lpeversion="1" />
    <rect
       x="168.82735"
       y="212.01574"
       width="421.41401"
       height="239.49926"
       id="rect40" />
    <rect
       x="197.61961"
       y="219.86818"
       width="202.85457"
       height="117.78652"
       id="rect38" />
    <inkscape:path-effect
       effect="spiro"
       id="path-effect37"
       is_visible="true"
       lpeversion="1" />
    <inkscape:path-effect
       effect="spiro"
       id="path-effect35"
       is_visible="true"
       lpeversion="1" />
    <inkscape:path-effect
       effect="spiro"
       id="path-effect34"
       is_visible="true"
       lpeversion="1" />
    <inkscape:path-effect
       effect="spiro"
       id="path-effect11"
       is_visible="true"
       lpeversion="1" />
    <linearGradient
       id="swatch7"
       inkscape:swatch="solid">
      <stop
         style="stop-color:#000000;stop-opacity:1;"
         offset="0"
         id="stop7" />
    </linearGradient>
    <inkscape:path-effect
       effect="spiro"
       id="path-effect37-8"
       is_visible="true"
       lpeversion="1" />
    <inkscape:path-effect
       effect="spiro"
       id="path-effect42-8"
       is_visible="true"
       lpeversion="1" />
    <inkscape:path-effect
       effect="spiro"
       id="path-effect37-8-3"
       is_visible="true"
       lpeversion="1" />
  </defs>
  <text
     xml:space="preserve"
     transform="scale(0.26458333)"
     id="text38"
     style="white-space:pre;shape-inside:url(#rect38);display:inline;opacity:1;fill:#000000;fill-opacity:0.148936;stroke:#000000;stroke-width:3.77953;stroke-dasharray:none;stroke-dashoffset:0;stroke-opacity:1;paint-order:stroke fill markers" />
  <text
     xml:space="preserve"
     style="font-size:3.175px;opacity:1;fill:#000000;fill-opacity:0.148936;stroke:#000000;stroke-width:1;stroke-dasharray:none;stroke-dashoffset:0;stroke-opacity:1;paint-order:stroke fill markers"
     x="68.561569"
     y="72.024277"
     id="text39"><tspan
       sodipodi:role="line"
       id="tspan39"
       style="stroke-width:1" /></text>
  <text
     xml:space="preserve"
     transform="scale(0.26458333)"
     id="text40"
     style="white-space:pre;shape-inside:url(#rect40);display:inline;opacity:1;fill:#000000;fill-opacity:0.148936;stroke:#000000;stroke-width:3.77953;stroke-dasharray:none;stroke-dashoffset:0;stroke-opacity:1;paint-order:stroke fill markers" />
  <path
     style="fill:none;fill-opacity:0.972826;stroke:#000000;stroke-width:0.25;paint-order:stroke fill markers"
     d="M 6.8504 96.2598 C 7.05242 94.6437 7.25444 93.0929 7.45646 91.6043 C 7.65848 90.1157 7.8605 88.6897 8.06252 87.323 C 8.26454 85.9563 8.46656 84.6493 8.66858 83.3989 C 8.8706 82.1485 9.07263 80.955 9.27465 79.8154 C 9.47667 78.6757 9.67869 77.5903 9.88071 76.5562 C 10.0827 75.522 10.2847 74.5395 10.4868 73.6056 C 10.6888 72.6718 10.8908 71.787 11.0928 70.9485 C 11.2948 70.11 11.4969 69.318 11.6989 68.57 C 11.9009 67.8219 12.1029 67.118 12.3049 66.4556 C 12.507 65.7932 12.709 65.1727 12.911 64.5915 C 13.113 64.0103 13.315 63.4686 13.5171 62.9641 C 13.7191 62.4596 13.9211 61.9924 14.1231 61.5603 C 14.3252 61.1282 14.5272 60.7313 14.7292 60.3674 C 14.9312 60.0035 15.1332 59.6729 15.3353 59.3732 C 15.5373 59.0735 15.7393 58.8051 15.9413 58.5657 C 16.1433 58.3263 16.3454 58.1163 16.5474 57.9335 C 16.7494 57.7507 16.9514 57.5953 17.1534 57.4654 C 17.3555 57.3355 17.5575 57.2312 17.7595 57.1507 C 17.9615 57.0702 18.1635 57.0136 18.3656 56.9792 C 18.5676 56.9447 18.7696 56.9324 18.9716 56.9407 C 19.1736 56.949 19.3757 56.9779 19.5777 57.0258 C 19.7797 57.0737 19.9817 57.1406 20.1837 57.2251 C 20.3858 57.3096 20.5878 57.4117 20.7898 57.5298 C 20.9918 57.648 21.1938 57.7823 21.3959 57.9313 C 21.5979 58.0804 21.7999 58.2442 22.0019 58.4215 C 22.2039 58.5987 22.406 58.7895 22.608 58.9923 C 22.81 59.1952 23.012 59.4103 23.214 59.6364 C 23.4161 59.8625 23.6181 60.0995 23.8201 60.3464 C 24.0221 60.5933 24.2241 60.85 24.4262 61.1155 C 24.6282 61.3809 24.8302 61.6551 25.0322 61.937 C 25.2342 62.2189 25.4363 62.5085 25.6383 62.8047 C 25.8403 63.1009 26.0423 63.4039 26.2443 63.7126 C 26.4464 64.0212 26.6484 64.3356 26.8504 64.6549 C 27.0524 64.9741 27.2544 65.2982 27.4565 65.6263 C 27.6585 65.9543 27.8605 66.2863 28.0625 66.6215 C 28.2645 66.9567 28.4666 67.2951 28.6686 67.6358 C 28.8706 67.9766 29.0726 68.3198 29.2746 68.6646 C 29.4767 69.0094 29.6787 69.356 29.8807 69.7035 C 30.0827 70.051 30.2847 70.3995 30.4868 70.7484 C 30.6888 71.0973 30.8908 71.4465 31.0928 71.7955 C 31.2948 72.1445 31.4969 72.4932 31.6989 72.8412 C 31.9009 73.1892 32.1029 73.5363 32.3049 73.8822 C 32.507 74.2281 32.709 74.5726 32.911 74.9153 C 33.113 75.2581 33.315 75.599 33.5171 75.9377 C 33.7191 76.2764 33.9211 76.6129 34.1231 76.9467 C 34.3252 77.2805 34.5272 77.6116 34.7292 77.9398 C 34.9312 78.2679 35.1332 78.593 35.3353 78.9147 C 35.5373 79.2365 35.7393 79.5548 35.9413 79.8695 C 36.1433 80.1842 36.3454 80.4952 36.5474 80.8022 C 36.7494 81.1093 36.9514 81.4124 37.1534 81.7113 C 37.3555 82.0102 37.5575 82.3048 37.7595 82.5951 C 37.9615 82.8854 38.1635 83.1712 38.3656 83.4524 C 38.5676 83.7337 38.7696 84.0103 38.9716 84.2821 C 39.1736 84.554 39.3757 84.8211 39.5777 85.0832 C 39.7797 85.3454 39.9817 85.6027 40.1837 85.8549 C 40.3858 86.1071 40.5878 86.3544 40.7898 86.5965 C 40.9918 86.8386 41.1938 87.0756 41.3959 87.3075 C 41.5979 87.5393 41.7999 87.766 42.0019 87.9875 C 42.2039 88.209 42.406 88.4252 42.608 88.6363 C 42.81 88.8473 43.012 89.0531 43.214 89.2537 C 43.4161 89.4543 43.6181 89.6497 43.8201 89.8399 C 44.0221 90.0301 44.2241 90.2151 44.4262 90.3949 C 44.6282 90.5747 44.8302 90.7493 45.0322 90.9189 C 45.2342 91.0885 45.4363 91.2529 45.6383 91.4123 C 45.8403 91.5717 46.0423 91.7261 46.2443 91.8756 C 46.4464 92.025 46.6484 92.1695 46.8504 92.3092 C 47.0524 92.4489 47.2544 92.5837 47.4565 92.7138 C 47.6585 92.8439 47.8605 92.9693 48.0625 93.0901 C 48.2645 93.2109 48.4666 93.3271 48.6686 93.4388 C 48.8706 93.5506 49.0726 93.6579 49.2746 93.7609 C 49.4767 93.8639 49.6787 93.9626 49.8807 94.0571 C 50.0827 94.1517 50.2847 94.2421 50.4868 94.3285 C 50.6888 94.4149 50.8908 94.4974 51.0928 94.5761 C 51.2948 94.6547 51.4969 94.7296 51.6989 94.8008 C 51.9009 94.8721 52.1029 94.9397 52.3049 95.0039 C 52.507 95.0681 52.709 95.1288 52.911 95.1863 C 53.113 95.2439 53.315 95.2981 53.5171 95.3494 C 53.7191 95.4006 53.9211 95.4488 54.1231 95.4942 C 54.3252 95.5395 54.5272 95.582 54.7292 95.6218 C 54.9312 95.6617 55.1332 95.6989 55.3353 95.7336 C 55.5373 95.7683 55.7393 95.8006 55.9413 95.8306 C 56.1433 95.8607 56.3454 95.8884 56.5474 95.9141 C 56.7494 95.9398 56.9514 95.9635 57.1534 95.9853 C 57.3555 96.007 57.5575 96.027 57.7595 96.0452 C 57.9615 96.0634 58.1635 96.08 58.3656 96.095 C 58.5676 96.1101 58.7696 96.1236 58.9716 96.1358 C 59.1736 96.1481 59.3757 96.159 59.5777 96.1688 C 59.7797 96.1785 59.9817 96.1872 60.1837 96.1948 C 60.3858 96.2024 60.5878 96.2091 60.7898 96.2149 C 60.9918 96.2207 61.1938 96.2257 61.3959 96.23 C 61.5979 96.2343 61.7999 96.2379 62.0019 96.241 C 62.2039 96.2441 62.406 96.2466 62.608 96.2487 C 62.81 96.2508 63.012 96.2524 63.214 96.2537 C 63.4161 96.2551 63.6181 96.2561 63.8201 96.2569 C 64.0221 96.2576 64.2241 96.2582 64.4262 96.2586 C 64.6282 96.259 64.8302 96.2593 65.0322 96.2594 C 65.2342 96.2596 65.4363 96.2597 65.6383 96.2597 C 65.8403 96.2598 66.0423 96.2598 66.2443 96.2598 C 66.4464 96.2598 66.6484 96.2598 66.8504 96.2598"
     title="12 * pow(x, 2 - 1) * pow(1-x, 5 - 1)"
     id="path1" />
  <path
     style="fill:none;fill-opacity:0.972826;stroke:#000000;stroke-width:0.25;paint-order:stroke fill markers"
     d="M 76.9754 96.3848 C 77.1774 95.8461 77.3794 95.3128 77.5815 94.785 C 77.7835 94.2571 77.9855 93.7348 78.1875 93.2178 C 78.3895 92.7008 78.5916 92.1893 78.7936 91.6833 C 78.9956 91.1772 79.1976 90.6766 79.3996 90.1814 C 79.6017 89.6862 79.8037 89.1964 80.0057 88.7121 C 80.2077 88.2278 80.4097 87.749 80.6118 87.2755 C 80.8138 86.8021 81.0158 86.3342 81.2178 85.8716 C 81.4198 85.4091 81.6219 84.952 81.8239 84.5003 C 82.0259 84.0487 82.2279 83.6025 82.4299 83.1617 C 82.632 82.7209 82.834 82.2856 83.036 81.8557 C 83.238 81.4258 83.44 81.0014 83.6421 80.5824 C 83.8441 80.1633 84.0461 79.7498 84.2481 79.3417 C 84.4502 78.9335 84.6522 78.5309 84.8542 78.1336 C 85.0562 77.7364 85.2582 77.3446 85.4603 76.9582 C 85.6623 76.5719 85.8643 76.191 86.0663 75.8155 C 86.2683 75.44 86.4704 75.07 86.6724 74.7054 C 86.8744 74.3408 87.0764 73.9817 87.2784 73.628 C 87.4805 73.2743 87.6825 72.926 87.8845 72.5832 C 88.0865 72.2403 88.2885 71.903 88.4906 71.571 C 88.6926 71.2391 88.8946 70.9126 89.0966 70.5915 C 89.2986 70.2705 89.5007 69.9549 89.7027 69.6447 C 89.9047 69.3345 90.1067 69.0298 90.3087 68.7305 C 90.5108 68.4312 90.7128 68.1374 90.9148 67.849 C 91.1168 67.5606 91.3188 67.2776 91.5209 67.0001 C 91.7229 66.7225 91.9249 66.4505 92.1269 66.1838 C 92.3289 65.9172 92.531 65.656 92.733 65.4002 C 92.935 65.1445 93.137 64.8942 93.339 64.6493 C 93.5411 64.4044 93.7431 64.165 93.9451 63.931 C 94.1471 63.697 94.3491 63.4685 94.5512 63.2454 C 94.7532 63.0222 94.9552 62.8046 95.1572 62.5924 C 95.3592 62.3801 95.5613 62.1734 95.7633 61.972 C 95.9653 61.7707 96.1673 61.5748 96.3693 61.3843 C 96.5714 61.1939 96.7734 61.0088 96.9754 60.8293 C 97.1774 60.6497 97.3794 60.4756 97.5815 60.3069 C 97.7835 60.1382 97.9855 59.9749 98.1875 59.8171 C 98.3895 59.6593 98.5916 59.507 98.7936 59.36 C 98.9956 59.2131 99.1976 59.0716 99.3996 58.9356 C 99.6017 58.7995 99.8037 58.669 100.006 58.5438 C 100.208 58.4186 100.41 58.2989 100.612 58.1846 C 100.814 58.0704 101.016 57.9615 101.218 57.8581 C 101.42 57.7547 101.622 57.6568 101.824 57.5643 C 102.026 57.4718 102.228 57.3847 102.43 57.3031 C 102.632 57.2215 102.834 57.1453 103.036 57.0746 C 103.238 57.0038 103.44 56.9385 103.642 56.8787 C 103.844 56.8188 104.046 56.7644 104.248 56.7154 C 104.45 56.6664 104.652 56.6229 104.854 56.5848 C 105.056 56.5467 105.258 56.5141 105.46 56.4869 C 105.662 56.4596 105.864 56.4379 106.066 56.4216 C 106.268 56.4052 106.47 56.3944 106.672 56.3889 C 106.874 56.3835 107.076 56.3835 107.278 56.3889 C 107.48 56.3943 107.682 56.4052 107.884 56.4216 C 108.087 56.4379 108.289 56.4597 108.491 56.4869 C 108.693 56.5141 108.895 56.5467 109.097 56.5848 C 109.299 56.6229 109.501 56.6664 109.703 56.7154 C 109.905 56.7644 110.107 56.8188 110.309 56.8787 C 110.511 56.9385 110.713 57.0038 110.915 57.0746 C 111.117 57.1453 111.319 57.2215 111.521 57.3031 C 111.723 57.3847 111.925 57.4718 112.127 57.5643 C 112.329 57.6568 112.531 57.7548 112.733 57.8581 C 112.935 57.9615 113.137 58.0704 113.339 58.1846 C 113.541 58.2989 113.743 58.4186 113.945 58.5438 C 114.147 58.6689 114.349 58.7996 114.551 58.9356 C 114.753 59.0716 114.955 59.2131 115.157 59.36 C 115.359 59.507 115.561 59.6593 115.763 59.8171 C 115.965 59.9749 116.167 60.1382 116.369 60.3069 C 116.571 60.4756 116.773 60.6497 116.975 60.8293 C 117.177 61.0088 117.379 61.1939 117.581 61.3843 C 117.783 61.5748 117.986 61.7707 118.188 61.972 C 118.39 62.1733 118.592 62.3801 118.794 62.5924 C 118.996 62.8046 119.198 63.0222 119.4 63.2454 C 119.602 63.4685 119.804 63.697 120.006 63.931 C 120.208 64.165 120.41 64.4044 120.612 64.6493 C 120.814 64.8942 121.016 65.1445 121.218 65.4002 C 121.42 65.656 121.622 65.9172 121.824 66.1838 C 122.026 66.4505 122.228 66.7226 122.43 67.0001 C 122.632 67.2776 122.834 67.5606 123.036 67.849 C 123.238 68.1374 123.44 68.4312 123.642 68.7305 C 123.844 69.0298 124.046 69.3345 124.248 69.6447 C 124.45 69.9549 124.652 70.2705 124.854 70.5915 C 125.056 70.9126 125.258 71.2391 125.46 71.571 C 125.662 71.903 125.864 72.2404 126.066 72.5832 C 126.268 72.926 126.47 73.2743 126.672 73.628 C 126.874 73.9817 127.076 74.3408 127.278 74.7054 C 127.48 75.07 127.682 75.44 127.884 75.8155 C 128.087 76.191 128.289 76.5719 128.491 76.9582 C 128.693 77.3446 128.895 77.7364 129.097 78.1336 C 129.299 78.5309 129.501 78.9335 129.703 79.3417 C 129.905 79.7498 130.107 80.1634 130.309 80.5824 C 130.511 81.0014 130.713 81.4258 130.915 81.8557 C 131.117 82.2856 131.319 82.7209 131.521 83.1617 C 131.723 83.6024 131.925 84.0487 132.127 84.5003 C 132.329 84.952 132.531 85.4091 132.733 85.8716 C 132.935 86.3341 133.137 86.8021 133.339 87.2755 C 133.541 87.749 133.743 88.2278 133.945 88.7121 C 134.147 89.1964 134.349 89.6862 134.551 90.1814 C 134.753 90.6766 134.955 91.1772 135.157 91.6833 C 135.359 92.1893 135.561 92.7009 135.763 93.2178 C 135.965 93.7347 136.167 94.2572 136.369 94.785 C 136.571 95.3128 136.773 95.8461 136.975 96.3848"
     title="4 * pow(x, 2 - 1) * pow(1-x, 2 - 1)"
     id="path2" />
  <path
     style="fill:none;fill-opacity:0.972826;stroke:#000000;stroke-width:0.25;paint-order:stroke fill markers"
     d="M 146.85 96.3848 C 147.052 96.3848 147.254 96.3848 147.456 96.3848 C 147.658 96.3848 147.861 96.3848 148.063 96.3847 C 148.265 96.3847 148.467 96.3846 148.669 96.3844 C 148.871 96.3843 149.073 96.384 149.275 96.3836 C 149.477 96.3832 149.679 96.3826 149.881 96.3819 C 150.083 96.3811 150.285 96.3801 150.487 96.3787 C 150.689 96.3774 150.891 96.3758 151.093 96.3737 C 151.295 96.3716 151.497 96.3691 151.699 96.366 C 151.901 96.3629 152.103 96.3593 152.305 96.355 C 152.507 96.3507 152.709 96.3457 152.911 96.3399 C 153.113 96.3341 153.315 96.3274 153.517 96.3198 C 153.719 96.3122 153.921 96.3035 154.123 96.2938 C 154.325 96.284 154.527 96.2731 154.729 96.2608 C 154.931 96.2486 155.133 96.2351 155.335 96.22 C 155.537 96.205 155.739 96.1884 155.941 96.1702 C 156.143 96.152 156.345 96.132 156.547 96.1103 C 156.749 96.0885 156.951 96.0648 157.153 96.0391 C 157.355 96.0134 157.557 95.9857 157.759 95.9556 C 157.962 95.9256 158.164 95.8933 158.366 95.8586 C 158.568 95.8239 158.77 95.7867 158.972 95.7468 C 159.174 95.707 159.376 95.6645 159.578 95.6192 C 159.78 95.5738 159.982 95.5256 160.184 95.4744 C 160.386 95.4232 160.588 95.3689 160.79 95.3114 C 160.992 95.2538 161.194 95.1931 161.396 95.1289 C 161.598 95.0647 161.8 94.9971 162.002 94.9258 C 162.204 94.8546 162.406 94.7797 162.608 94.7011 C 162.81 94.6224 163.012 94.5399 163.214 94.4535 C 163.416 94.3671 163.618 94.2767 163.82 94.1821 C 164.022 94.0876 164.224 93.9889 164.426 93.8859 C 164.628 93.7829 164.83 93.6756 165.032 93.5638 C 165.234 93.4521 165.436 93.3359 165.638 93.2151 C 165.84 93.0943 166.042 92.9689 166.244 92.8388 C 166.446 92.7087 166.648 92.5739 166.85 92.4342 C 167.052 92.2945 167.254 92.15 167.456 92.0006 C 167.658 91.8511 167.861 91.6967 168.063 91.5373 C 168.265 91.3779 168.467 91.2135 168.669 91.0439 C 168.871 90.8744 169.073 90.6997 169.275 90.5199 C 169.477 90.3401 169.679 90.1551 169.881 89.9649 C 170.083 89.7747 170.285 89.5793 170.487 89.3787 C 170.689 89.1781 170.891 88.9723 171.093 88.7613 C 171.295 88.5502 171.497 88.3339 171.699 88.1125 C 171.901 87.891 172.103 87.6643 172.305 87.4325 C 172.507 87.2006 172.709 86.9636 172.911 86.7215 C 173.113 86.4794 173.315 86.2321 173.517 85.9799 C 173.719 85.7277 173.921 85.4704 174.123 85.2082 C 174.325 84.9461 174.527 84.679 174.729 84.4072 C 174.931 84.1353 175.133 83.8587 175.335 83.5775 C 175.537 83.2962 175.739 83.0104 175.941 82.7201 C 176.143 82.4299 176.345 82.1352 176.547 81.8363 C 176.749 81.5374 176.951 81.2343 177.153 80.9272 C 177.355 80.6202 177.557 80.3092 177.759 79.9945 C 177.962 79.6798 178.164 79.3615 178.366 79.0397 C 178.568 78.718 178.77 78.3929 178.972 78.0648 C 179.174 77.7367 179.376 77.4055 179.578 77.0717 C 179.78 76.7379 179.982 76.4014 180.184 76.0627 C 180.386 75.724 180.588 75.3831 180.79 75.0403 C 180.992 74.6976 181.194 74.3531 181.396 74.0072 C 181.598 73.6613 181.8 73.3142 182.002 72.9662 C 182.204 72.6183 182.406 72.2695 182.608 71.9205 C 182.81 71.5715 183.012 71.2223 183.214 70.8734 C 183.416 70.5245 183.618 70.176 183.82 69.8285 C 184.022 69.481 184.224 69.1345 184.426 68.7896 C 184.628 68.4448 184.83 68.1016 185.032 67.7608 C 185.234 67.4201 185.436 67.0817 185.638 66.7465 C 185.84 66.4113 186.042 66.0793 186.244 65.7513 C 186.446 65.4232 186.648 65.0991 186.85 64.7799 C 187.052 64.4606 187.254 64.1462 187.456 63.8376 C 187.658 63.5289 187.861 63.226 188.063 62.9297 C 188.265 62.6334 188.467 62.3439 188.669 62.062 C 188.871 61.7801 189.073 61.506 189.275 61.2405 C 189.477 60.975 189.679 60.7183 189.881 60.4714 C 190.083 60.2245 190.285 59.9875 190.487 59.7614 C 190.689 59.5353 190.891 59.3203 191.093 59.1173 C 191.295 58.9144 191.497 58.7238 191.699 58.5465 C 191.901 58.3692 192.103 58.2054 192.305 58.0564 C 192.507 57.9073 192.709 57.773 192.911 57.6548 C 193.113 57.5366 193.315 57.4346 193.517 57.3501 C 193.719 57.2656 193.921 57.1987 194.123 57.1508 C 194.325 57.1029 194.527 57.074 194.729 57.0657 C 194.931 57.0574 195.133 57.0697 195.335 57.1042 C 195.537 57.1386 195.739 57.1953 195.941 57.2757 C 196.143 57.3562 196.345 57.4605 196.547 57.5904 C 196.749 57.7202 196.951 57.8757 197.153 58.0585 C 197.355 58.2412 197.557 58.4514 197.759 58.6907 C 197.962 58.93 198.164 59.1986 198.366 59.4982 C 198.568 59.7978 198.77 60.1286 198.972 60.4924 C 199.174 60.8562 199.376 61.2533 199.578 61.6853 C 199.78 62.1173 199.982 62.5846 200.184 63.0891 C 200.386 63.5935 200.588 64.1353 200.79 64.7165 C 200.992 65.2976 201.194 65.9183 201.396 66.5806 C 201.598 67.2429 201.8 67.947 202.002 68.695 C 202.204 69.4429 202.406 70.2351 202.608 71.0735 C 202.81 71.9119 203.012 72.7969 203.214 73.7306 C 203.416 74.6644 203.618 75.6471 203.82 76.6812 C 204.022 77.7152 204.224 78.8008 204.426 79.9404 C 204.628 81.0799 204.83 82.2736 205.032 83.5239 C 205.234 84.7742 205.436 86.0815 205.638 87.448 C 205.84 88.8146 206.042 90.2408 206.244 91.7293 C 206.446 93.2177 206.648 94.7687 206.85 96.3848"
     title="12 * pow(x, 5 - 1) * pow(1-x, 2 - 1)"
     id="path3"
     inkscape:export-filename="./asymmetry.pdf"
     inkscape:export-xdpi="96"
     inkscape:export-ydpi="96" />
</svg>
